<svg width="800" height="800" viewBox="0 0 800 800" fill="none" xmlns="http://www.w3.org/2000/svg">
<g opacity="0.7">
<path d="M400.774 150.678C442.386 150.678 476.106 116.933 476.106 75.3578C476.106 33.7187 442.388 0 400.774 0C359.133 0 325.427 33.7187 325.427 75.3578C325.428 116.933 359.135 150.678 400.774 150.678Z" fill="white"/>
<path d="M466.042 186.374H399.994H333.945C297.442 186.374 257.728 226.089 257.728 262.605V515.82C257.728 534.078 272.514 548.877 290.772 548.877C299.745 548.877 290.772 548.877 313.828 548.877L326.403 764.824C326.403 784.252 342.15 800 361.58 800C369.773 800 384.897 800 399.994 800C415.105 800 430.228 800 438.42 800C457.848 800 473.597 784.253 473.597 764.824L486.159 548.877C509.228 548.877 500.242 548.877 509.228 548.877C527.472 548.877 542.272 534.078 542.272 515.82V262.605C542.272 226.089 502.556 186.374 466.042 186.374Z" fill="white"/>
<path d="M162.721 232.942C199.067 232.942 228.51 203.489 228.51 167.155C228.51 130.808 199.067 101.355 162.721 101.355C126.361 101.355 96.9331 130.809 96.9331 167.155C96.9331 203.488 126.361 232.942 162.721 232.942Z" fill="white"/>
<path d="M638.619 232.942C674.978 232.942 704.407 203.489 704.407 167.155C704.407 130.808 674.978 101.355 638.619 101.355C602.286 101.355 572.832 130.809 572.832 167.155C572.832 203.488 602.286 232.942 638.619 232.942Z" fill="white"/>
<path d="M214.464 264.1H162.045H104.358C72.486 264.1 37.8032 298.808 37.8032 330.681V551.816C37.8032 567.772 50.7157 580.684 66.6595 580.684C74.5001 580.684 66.6595 580.684 86.7907 580.684L97.7657 769.284C97.7657 786.241 111.524 800 128.494 800C135.645 800 148.844 800 162.045 800C175.231 800 188.444 800 195.595 800C212.566 800 226.324 786.242 226.324 769.284L237.286 580.684V569.983C223.255 556.145 214.464 537.042 214.464 515.82V264.1Z" fill="white"/>
<path d="M695.642 264.1H637.942H585.536V515.82C585.536 537.042 576.746 556.145 562.7 569.983V580.684L573.664 769.284C573.664 786.241 587.436 800 604.405 800C611.558 800 624.756 800 637.942 800C651.155 800 664.355 800 671.506 800C688.478 800 702.224 786.242 702.224 769.284L713.211 580.684C733.341 580.684 725.5 580.684 733.341 580.684C749.285 580.684 762.197 567.77 762.197 551.816V330.681C762.197 298.808 727.516 264.1 695.642 264.1Z" fill="white"/>
</g>
</svg>
