<svg width="70" height="70" viewBox="0 0 70 70" fill="none" xmlns="http://www.w3.org/2000/svg">
<g opacity="0.7">
<path d="M43.7499 40.8334L49.7145 36.3622C56.7845 31.0568 59.914 20.3584 58.3332 11.6668C49.6386 10.0859 38.9403 13.2155 33.6378 20.2855L29.1665 26.2501M43.7499 40.8334L33.5415 48.1251L21.8749 36.4584L29.1665 26.2501M43.7499 40.8334V48.6122C43.7499 51.1365 42.9311 53.5927 41.4165 55.6122L39.3749 58.3334L36.4582 55.4168M29.1665 26.2501H21.3878C18.8635 26.2501 16.4073 27.0688 14.3878 28.5834L11.6665 30.6251L14.5832 33.5418M24.7915 52.5001L14.5832 55.4168L17.984 45.2084M45.2082 27.7084C45.9818 27.7084 46.7236 27.4011 47.2706 26.8542C47.8176 26.3072 48.1249 25.5653 48.1249 24.7918C48.1249 24.0182 47.8176 23.2763 47.2706 22.7294C46.7236 22.1824 45.9818 21.8751 45.2082 21.8751C44.4347 21.8751 43.6928 22.1824 43.1458 22.7294C42.5988 23.2763 42.2915 24.0182 42.2915 24.7918C42.2915 25.5653 42.5988 26.3072 43.1458 26.8542C43.6928 27.4011 44.4347 27.7084 45.2082 27.7084Z" stroke="white" stroke-width="6" stroke-linecap="round" stroke-linejoin="round"/>
</g>
</svg>
