<svg width="24" height="24" viewBox="0 0 24 24" fill="none" xmlns="http://www.w3.org/2000/svg">
<g clip-path="url(#clip0_9_24)">
<path d="M18.05 6.56006C17.8272 6.56006 17.6136 6.64856 17.456 6.80609C17.2985 6.96362 17.21 7.17728 17.21 7.40006V12.1801C17.21 12.4028 17.2985 12.6165 17.456 12.774C17.6136 12.9316 17.8272 13.0201 18.05 13.0201C18.2728 13.0201 18.4864 12.9316 18.644 12.774C18.8015 12.6165 18.89 12.4028 18.89 12.1801V7.40006C18.8874 7.17808 18.7981 6.96593 18.6411 6.80896C18.4841 6.65199 18.272 6.56266 18.05 6.56006ZM11.68 6.56006C11.458 6.56266 11.2459 6.65199 11.0889 6.80896C10.9319 6.96593 10.8426 7.17808 10.84 7.40006V9.83006H12.52V7.40006C12.5174 7.17808 12.4281 6.96593 12.2711 6.80896C12.1141 6.65199 11.902 6.56266 11.68 6.56006Z" fill="white"/>
<path d="M22.88 1.93994H1.12C0.822956 1.93994 0.53808 2.05794 0.328039 2.26798C0.117999 2.47802 -1.12893e-06 2.7629 -1.12893e-06 3.05994V17.5599C-0.00132189 17.7079 0.0266728 17.8546 0.0823664 17.9916C0.13806 18.1287 0.220349 18.2533 0.324483 18.3584C0.428616 18.4634 0.55253 18.5468 0.689071 18.6037C0.825612 18.6606 0.972073 18.6899 1.12 18.6899H3.72C3.48509 19.9099 2.97933 21.0615 2.24 22.0599C5.5 22.1099 7.56 20.8499 8.79 18.6899H22.88C23.0279 18.6899 23.1744 18.6606 23.3109 18.6037C23.4475 18.5468 23.5714 18.4634 23.6755 18.3584C23.7796 18.2533 23.8619 18.1287 23.9176 17.9916C23.9733 17.8546 24.0013 17.7079 24 17.5599V3.05994C24 2.7629 23.882 2.47802 23.672 2.26798C23.4619 2.05794 23.177 1.93994 22.88 1.93994ZM7.54 6.55994H6C5.77802 6.56254 5.56587 6.65187 5.4089 6.80884C5.25193 6.96581 5.1626 7.17797 5.16 7.39994V9.82994H6.75C6.94891 9.82994 7.13968 9.90896 7.28033 10.0496C7.42098 10.1903 7.5 10.381 7.5 10.5799C7.5 10.7789 7.42098 10.9696 7.28033 11.1103C7.13968 11.2509 6.94891 11.3299 6.75 11.3299H5.11V13.7699C5.11 13.9689 5.03098 14.1596 4.89033 14.3003C4.74968 14.4409 4.55891 14.5199 4.36 14.5199C4.16109 14.5199 3.97032 14.4409 3.82967 14.3003C3.68902 14.1596 3.61 13.9689 3.61 13.7699V7.39994C3.60993 7.0884 3.67207 6.77997 3.79278 6.49276C3.91349 6.20555 4.09034 5.94534 4.31295 5.72738C4.53556 5.50942 4.79946 5.33812 5.08916 5.2235C5.37886 5.10889 5.68852 5.05328 6 5.05994H7.54C7.73891 5.05994 7.92968 5.13896 8.07033 5.27961C8.21098 5.42026 8.29 5.61103 8.29 5.80994C8.29 6.00885 8.21098 6.19962 8.07033 6.34027C7.92968 6.48092 7.73891 6.55994 7.54 6.55994ZM14 13.7699C14 13.9689 13.921 14.1596 13.7803 14.3003C13.6397 14.4409 13.4489 14.5199 13.25 14.5199C13.0511 14.5199 12.8603 14.4409 12.7197 14.3003C12.579 14.1596 12.5 13.9689 12.5 13.7699V11.3299H10.84V13.7699C10.84 13.9689 10.761 14.1596 10.6203 14.3003C10.4797 14.4409 10.2889 14.5199 10.09 14.5199C9.89109 14.5199 9.70032 14.4409 9.55967 14.3003C9.41902 14.1596 9.34 13.9689 9.34 13.7699V7.39994C9.30994 7.07582 9.34783 6.74899 9.45126 6.44035C9.55468 6.1317 9.72137 5.84803 9.94065 5.60746C10.1599 5.3669 10.427 5.17473 10.7248 5.04324C11.0226 4.91175 11.3445 4.84384 11.67 4.84384C11.9955 4.84384 12.3174 4.91175 12.6152 5.04324C12.913 5.17473 13.1801 5.3669 13.3993 5.60746C13.6186 5.84803 13.7853 6.1317 13.8887 6.44035C13.9922 6.74899 14.0301 7.07582 14 7.39994V13.7699ZM20.37 12.1799C20.3646 12.553 20.2713 12.9195 20.0975 13.2497C19.9237 13.5798 19.6745 13.8643 19.37 14.0799L20.12 14.8299C20.2604 14.9706 20.3393 15.1612 20.3393 15.3599C20.3393 15.5587 20.2604 15.7493 20.12 15.8899C19.9794 16.0304 19.7887 16.1093 19.59 16.1093C19.3912 16.1093 19.2006 16.0304 19.06 15.8899L17.66 14.4899C17.1051 14.4085 16.598 14.1304 16.2309 13.7064C15.8638 13.2825 15.6612 12.7407 15.66 12.1799V7.39994C15.66 6.77934 15.9065 6.18415 16.3454 5.74531C16.7842 5.30648 17.3794 5.05994 18 5.05994C18.6206 5.05994 19.2158 5.30648 19.6546 5.74531C20.0935 6.18415 20.34 6.77934 20.34 7.39994L20.37 12.1799Z" fill="white"/>
</g>
<defs>
<clipPath id="clip0_9_24">
<rect width="24" height="24" fill="white"/>
</clipPath>
</defs>
</svg>
