<svg width="60" height="60" viewBox="0 0 60 60" fill="none" xmlns="http://www.w3.org/2000/svg">
<g clip-path="url(#clip0_2006_514)">
<mask id="mask0_2006_514" style="mask-type:luminance" maskUnits="userSpaceOnUse" x="0" y="0" width="60" height="60">
<path d="M60 0H0V60H60V0Z" fill="white"/>
</mask>
<g mask="url(#mask0_2006_514)">
<g opacity="0.7">
<path d="M53.4375 7.87509C52.7928 7.45802 52.0556 7.20571 51.2905 7.14032C50.5255 7.07493 49.7561 7.19847 49.05 7.50009L25.9125 16.6126C25.3653 16.8374 24.7791 16.9521 24.1875 16.9501H9.375C8.1318 16.9501 6.93951 17.4439 6.06044 18.323C5.18136 19.2021 4.6875 20.3944 4.6875 21.6376V22.0126H0V33.2626H4.6875V33.7501C4.71688 34.9737 5.22367 36.1373 6.09959 36.9921C6.9755 37.847 8.15105 38.3254 9.375 38.3251L15 50.2501C15.3809 51.0531 15.9805 51.7324 16.7301 52.21C17.4797 52.6876 18.3487 52.9441 19.2375 52.9501H21.6C22.8367 52.9402 24.0194 52.442 24.8903 51.564C25.7613 50.6859 26.25 49.4993 26.25 48.2626V38.7751L49.05 47.8876C49.6116 48.1082 50.2092 48.2226 50.8125 48.2251C51.7486 48.2078 52.6599 47.9214 53.4375 47.4001C54.0543 46.9836 54.563 46.4263 54.9217 45.7742C55.2804 45.1221 55.4786 44.394 55.5 43.6501V11.7376C55.4966 10.9745 55.3069 10.2238 54.9475 9.55072C54.588 8.8776 54.0697 8.3024 53.4375 7.87509ZM21.5625 21.6376V33.7501H9.375V21.6376H21.5625ZM21.5625 48.2626H19.2L14.5875 38.3251H21.5625V48.2626ZM27.6375 34.3126C27.1922 34.0852 26.7279 33.897 26.25 33.7501V21.3751C26.7232 21.2767 27.1874 21.1387 27.6375 20.9626L50.8125 11.7376V43.5376L27.6375 34.3126ZM55.6125 22.9501V32.3251C56.8557 32.3251 58.048 31.8312 58.9271 30.9521C59.8061 30.0731 60.3 28.8808 60.3 27.6376C60.3 26.3944 59.8061 25.2021 58.9271 24.323C58.048 23.4439 56.8557 22.9501 55.6125 22.9501Z" fill="white"/>
</g>
</g>
</g>
<defs>
<clipPath id="clip0_2006_514">
<rect width="60" height="60" fill="white"/>
</clipPath>
</defs>
</svg>
