<svg width="60" height="60" viewBox="0 0 60 60" fill="none" xmlns="http://www.w3.org/2000/svg">
<g opacity="0.7">
<path d="M37.3969 41.25L48.6619 26.25L60 41.25H52.5V45C52.5 51.2044 47.4544 56.25 41.25 56.25H18.75C12.5456 56.25 7.5 51.2044 7.5 45V41.25H15V45C15 47.0662 16.6838 48.75 18.75 48.75H41.25C43.3162 48.75 45 47.0662 45 45V41.25H37.3969Z" fill="white"/>
<path d="M22.6031 18.75L11.3381 33.75L0 18.75H7.5V15C7.5 8.79562 12.5456 3.75 18.75 3.75H41.25C47.4544 3.75 52.5 8.79562 52.5 15V18.75H45V15C45 12.9338 43.3162 11.25 41.25 11.25H18.75C16.6838 11.25 15 12.9338 15 15V18.75H22.6031Z" fill="white"/>
</g>
</svg>
