<svg width="60" height="60" viewBox="0 0 60 60" fill="none" xmlns="http://www.w3.org/2000/svg">
<g opacity="0.7">
<path d="M54.2747 21.7749C57.3997 18.6499 55.9747 14.9999 54.2747 13.2249L46.7747 5.72494C43.6247 2.59994 39.9997 4.02494 38.2247 5.72494L33.9747 9.99993H27.4997C22.7497 9.99993 19.9997 12.4999 18.5997 15.3749L7.4997 26.4749V36.4749L5.7247 38.2249C2.5997 41.3749 4.0247 44.9999 5.7247 46.7749L13.2247 54.2749C14.5747 55.6249 16.0247 56.1249 17.3997 56.1249C19.1747 56.1249 20.7997 55.2499 21.7747 54.2749L28.5247 47.4999H37.4997C41.7497 47.4999 43.8997 44.8499 44.6747 42.2499C47.4997 41.4999 49.0497 39.3499 49.6747 37.2499C53.5497 36.2499 54.9997 32.5749 54.9997 29.9999V22.4999H53.5247L54.2747 21.7749ZM49.9997 29.9999C49.9997 31.1249 49.5247 32.4999 47.4997 32.4999H44.9997V34.9999C44.9997 36.1249 44.5247 37.4999 42.4997 37.4999H39.9997V39.9999C39.9997 41.1249 39.5247 42.4999 37.4997 42.4999H26.4747L18.2747 50.6999C17.4997 51.4249 17.0497 50.9999 16.7747 50.7249L9.2997 43.2749C8.5747 42.4999 8.9997 42.0499 9.2747 41.7749L12.4997 38.5249V28.5249L17.4997 23.5249V27.4999C17.4997 30.5249 19.4997 34.9999 24.9997 34.9999C30.4997 34.9999 32.4997 30.5249 32.4997 27.4999H49.9997V29.9999ZM50.7247 18.2249L46.4747 22.4999H27.4997V27.4999C27.4997 28.6249 27.0247 29.9999 24.9997 29.9999C22.9747 29.9999 22.4997 28.6249 22.4997 27.4999V19.9999C22.4997 18.8499 22.9247 14.9999 27.4997 14.9999H36.0247L41.7247 9.29994C42.4997 8.57494 42.9497 8.99994 43.2247 9.27494L50.6997 16.7249C51.4247 17.4999 50.9997 17.9499 50.7247 18.2249Z" fill="white"/>
</g>
</svg>
