<svg width="60" height="60" viewBox="0 0 60 60" fill="none" xmlns="http://www.w3.org/2000/svg">
<g opacity="0.7">
<path d="M45.1065 51.3125V44.9375V8.6875C45.1065 8.3425 44.8265 8.0625 44.4815 8.0625H18.9565C16.7165 8.0625 14.894 9.885 14.894 12.125V48.125C14.894 50.2275 16.604 51.9375 18.7065 51.9375H44.4815C44.8265 51.9375 45.1065 51.6575 45.1065 51.3125ZM43.8565 44.3125H19.5815V9.3125H43.8565V44.3125ZM18.7065 45.5625H41.6665V47.5H16.229C16.3402 47.0537 16.564 46.6437 16.9027 46.3125C17.3752 45.8287 18.0165 45.5625 18.7065 45.5625ZM16.144 12.125C16.144 10.79 17.0815 9.67375 18.3315 9.3875V44.3463C18.2115 44.3575 18.089 44.3612 17.9715 44.3837C17.8927 44.3987 17.819 44.4287 17.7415 44.4487C17.5852 44.49 17.4277 44.5288 17.279 44.5888C17.1915 44.6238 17.1115 44.6737 17.0277 44.715C16.8977 44.78 16.7665 44.8412 16.6452 44.9212C16.5602 44.9762 16.4852 45.0437 16.4052 45.105C16.319 45.1725 16.2252 45.23 16.1452 45.305V12.125H16.144ZM43.8565 50.6875H18.7065C17.5102 50.6875 16.5115 49.86 16.2302 48.75H42.2915C42.6365 48.75 42.9165 48.47 42.9165 48.125V45.5625H43.8565V50.6875Z" fill="white"/>
<path d="M26.9253 23.0625H35.3628C35.7078 23.0625 35.9878 22.7825 35.9878 22.4375V14.9375C35.9878 14.5925 35.7078 14.3125 35.3628 14.3125H26.9253C26.5803 14.3125 26.3003 14.5925 26.3003 14.9375V22.4375C26.3003 22.7838 26.5803 23.0625 26.9253 23.0625ZM27.5503 15.5625H34.7378V21.8125H27.5503V15.5625Z" fill="white"/>
<path d="M25.4414 30.5625H37.0039C37.3489 30.5625 37.6289 30.2825 37.6289 29.9375C37.6289 29.5925 37.3489 29.3125 37.0039 29.3125H25.4414C25.0964 29.3125 24.8164 29.5925 24.8164 29.9375C24.8164 30.2825 25.0951 30.5625 25.4414 30.5625Z" fill="white"/>
</g>
</svg>
