<svg width="70" height="70" viewBox="0 0 70 70" fill="none" xmlns="http://www.w3.org/2000/svg">
<g opacity="0.53">
<path fill-rule="evenodd" clip-rule="evenodd" d="M40.8335 59.7916V12.3957C40.8335 10.2724 40.8276 8.89575 40.6935 7.88659C40.5651 6.93867 40.358 6.64117 40.1918 6.47492C40.0255 6.30867 39.728 6.10159 38.7801 5.97325C37.768 5.83909 36.3943 5.83325 34.271 5.83325C32.1476 5.83325 30.771 5.83909 29.7618 5.97325C28.8139 6.10159 28.5164 6.30867 28.3501 6.47492C28.1839 6.64117 27.9768 6.93867 27.8485 7.88659C27.7143 8.89867 27.7085 10.2724 27.7085 12.3957V59.7916H40.8335Z" fill="white"/>
<path opacity="0.7" d="M23.3335 25.5208C23.3335 24.9407 23.103 24.3843 22.6927 23.974C22.2825 23.5638 21.7261 23.3333 21.146 23.3333H12.396C11.8158 23.3333 11.2594 23.5638 10.8492 23.974C10.4389 24.3843 10.2085 24.9407 10.2085 25.5208V59.7916H23.3335V25.5208ZM58.3335 40.1042C58.3335 39.524 58.103 38.9676 57.6928 38.5574C57.2825 38.1471 56.7261 37.9167 56.146 37.9167H47.396C46.8158 37.9167 46.2594 38.1471 45.8492 38.5574C45.4389 38.9676 45.2085 39.524 45.2085 40.1042V59.7916H58.3335V40.1042Z" fill="white"/>
<path opacity="0.5" d="M5.10449 59.7915C4.52433 59.7915 3.96793 60.0219 3.55769 60.4322C3.14746 60.8424 2.91699 61.3988 2.91699 61.979C2.91699 62.5591 3.14746 63.1155 3.55769 63.5258C3.96793 63.936 4.52433 64.1665 5.10449 64.1665H63.4378C64.0179 64.1665 64.5743 63.936 64.9846 63.5258C65.3948 63.1155 65.6253 62.5591 65.6253 61.979C65.6253 61.3988 65.3948 60.8424 64.9846 60.4322C64.5743 60.0219 64.0179 59.7915 63.4378 59.7915H5.10449Z" fill="white"/>
</g>
</svg>
