<svg width="800" height="800" viewBox="0 0 800 800" fill="none" xmlns="http://www.w3.org/2000/svg">
<g opacity="0.7">
<path fill-rule="evenodd" clip-rule="evenodd" d="M660.001 339.333C649.668 233.333 587.001 66.6666 393.335 66.6666C199.668 66.6666 137.001 233.333 126.668 339.333C90.4185 353.091 66.5077 387.894 66.6673 426.667V473.333C66.6673 524.88 108.455 566.667 160.001 566.667C211.548 566.667 253.335 524.88 253.335 473.333V426.667C253.167 388.731 230.135 354.643 195.001 340.333C201.668 279 234.335 133.333 393.335 133.333C552.335 133.333 584.668 279 591.335 340.333C556.273 354.674 533.356 388.785 533.335 426.667V473.333C533.48 509.166 554.055 541.776 586.335 557.333C572.335 583.667 536.668 619.333 449.001 630C431.477 603.39 397.573 592.899 368.083 604.963C338.593 617.026 321.761 648.271 327.911 679.534C334.06 710.797 361.473 733.333 393.335 733.333C418.513 733.194 441.464 718.881 452.668 696.333C595.668 680 641.335 606.333 655.668 563C694.445 550.439 720.524 514.091 720.001 473.333V426.667C720.162 387.894 696.251 353.091 660.001 339.333ZM186.668 473.333C186.668 488.061 174.729 500 160.001 500C145.274 500 133.335 488.061 133.335 473.333V426.667C133.335 417.14 138.417 408.336 146.668 403.573C154.919 398.809 165.084 398.809 173.335 403.573C181.585 408.336 186.668 417.14 186.668 426.667V473.333ZM600.001 426.667C600.001 411.939 611.941 400 626.668 400C641.396 400 653.335 411.939 653.335 426.667V473.333C653.335 488.061 641.396 500 626.668 500C611.941 500 600.001 488.061 600.001 473.333V426.667Z" fill="white"/>
</g>
</svg>
