<svg width="18" height="16" viewBox="0 0 18 16" fill="none" xmlns="http://www.w3.org/2000/svg">
<g clip-path="url(#clip0_9_16)">
<path d="M5 0C5.55312 0 6 0.446875 6 1V2H10C10.5531 2 11 2.44688 11 3C11 3.55312 10.5531 4 10 4H9.7L9.4375 4.72188C8.925 6.13438 8.15312 7.425 7.18125 8.53438C7.625 8.80937 8.0875 9.05313 8.56875 9.26875L10.1438 9.96875L12.0875 5.59375C12.2469 5.23125 12.6062 5 13 5C13.3938 5 13.7531 5.23125 13.9125 5.59375L17.9125 14.5938C18.1375 15.1 17.9094 15.6906 17.4062 15.9125C16.9031 16.1344 16.3094 15.9094 16.0875 15.4062L15.4625 14H10.5406L9.91562 15.4062C9.69062 15.9125 9.1 16.1375 8.59688 15.9125C8.09375 15.6875 7.86562 15.0969 8.09062 14.5938L9.33438 11.7969L7.75938 11.0969C7.04063 10.7781 6.35313 10.3969 5.70312 9.95938C5.0375 10.4969 4.30937 10.9656 3.53125 11.3562L2.44688 11.8938C1.95313 12.1406 1.35313 11.9406 1.10625 11.4469C0.859375 10.9531 1.05938 10.3531 1.55313 10.1062L2.63125 9.56563C3.14062 9.30937 3.625 9.0125 4.08125 8.68125C3.65 8.28437 3.24375 7.85625 2.86562 7.40312L2.55 7.02187C2.19687 6.59687 2.25312 5.96563 2.67812 5.6125C3.10312 5.25938 3.73438 5.31562 4.0875 5.74062L4.40625 6.12187C4.76562 6.55625 5.15937 6.95938 5.575 7.33125C6.43437 6.38125 7.1125 5.26562 7.55937 4.0375L7.575 4H1.00312C0.446875 4 0 3.55312 0 3C0 2.44688 0.446875 2 1 2H4V1C4 0.446875 4.44688 0 5 0ZM13 8.4625L11.4281 12H14.5719L13 8.4625Z" fill="black"/>
</g>
<defs>
<clipPath id="clip0_9_16">
<rect width="18" height="16" fill="white"/>
</clipPath>
</defs>
</svg>
