<svg width="60" height="60" viewBox="0 0 60 60" fill="none" xmlns="http://www.w3.org/2000/svg">
<g opacity="0.7">
<path d="M54.2749 21.775C57.3999 18.65 55.9749 15 54.2749 13.225L46.7749 5.72501C43.6249 2.60001 39.9999 4.02501 38.2249 5.72501L33.9749 10H27.4999C22.7499 10 19.9999 12.5 18.5999 15.375L7.49994 26.475V36.475L5.72494 38.225C2.59994 41.375 4.02494 45 5.72494 46.775L13.2249 54.275C14.5749 55.625 16.0249 56.125 17.3999 56.125C19.1749 56.125 20.7999 55.25 21.7749 54.275L28.5249 47.5H37.4999C41.7499 47.5 43.8999 44.85 44.6749 42.25C47.4999 41.5 49.0499 39.35 49.6749 37.25C53.5499 36.25 54.9999 32.575 54.9999 30V22.5H53.5249L54.2749 21.775ZM49.9999 30C49.9999 31.125 49.5249 32.5 47.4999 32.5H44.9999V35C44.9999 36.125 44.5249 37.5 42.4999 37.5H39.9999V40C39.9999 41.125 39.5249 42.5 37.4999 42.5H26.4749L18.2749 50.7C17.4999 51.425 17.0499 51 16.7749 50.725L9.29994 43.275C8.57494 42.5 8.99994 42.05 9.27494 41.775L12.4999 38.525V28.525L17.4999 23.525V27.5C17.4999 30.525 19.4999 35 24.9999 35C30.4999 35 32.4999 30.525 32.4999 27.5H49.9999V30ZM50.7249 18.225L46.4749 22.5H27.4999V27.5C27.4999 28.625 27.0249 30 24.9999 30C22.9749 30 22.4999 28.625 22.4999 27.5V20C22.4999 18.85 22.9249 15 27.4999 15H36.0249L41.7249 9.30001C42.4999 8.57501 42.9499 9.00001 43.2249 9.27501L50.6999 16.725C51.4249 17.5 50.9999 17.95 50.7249 18.225Z" fill="black"/>
</g>
</svg>
