<svg width="24" height="21" viewBox="0 0 24 21" fill="none" xmlns="http://www.w3.org/2000/svg">
<g clip-path="url(#clip0_373_767)">
<path d="M4 1.80001H20C20.6365 1.80001 21.247 2.05287 21.6971 2.50296C22.1471 2.95304 22.4 3.56349 22.4 4.20001V12.2C22.4 12.8365 22.1471 13.447 21.6971 13.8971C21.6441 13.95 21.5889 14.0002 21.5318 14.0476L22.4222 15.3833C22.5646 15.2749 22.7004 15.1564 22.8284 15.0284C23.5786 14.2783 24 13.2609 24 12.2V4.20001C24 3.13915 23.5786 2.12173 22.8284 1.37159C22.0783 0.62144 21.0609 0.200012 20 0.200012H4L3.5904 0.220812C2.60562 0.322187 1.69341 0.785153 1.03021 1.52017C0.367012 2.25518 -5.53131e-05 3.21002 0 4.20001V12.2C-5.53131e-05 13.19 0.367012 14.1448 1.03021 14.8799C1.69341 15.6149 2.60562 16.0778 3.5904 16.1792L4 16.2H6.4V20.2C6.39972 20.3584 6.44648 20.5134 6.53437 20.6452C6.62225 20.777 6.7473 20.8798 6.89366 20.9405C7.04001 21.0011 7.20109 21.017 7.35646 20.986C7.51184 20.955 7.65451 20.8786 7.7664 20.7664L12.3296 16.2H20C20.8798 16.2 21.7298 15.9101 22.4222 15.3833L21.5318 14.0476C21.103 14.4032 20.5616 14.6 20 14.6H12L11.8432 14.616C11.6882 14.6465 11.5456 14.7222 11.4336 14.8336L8 18.2704V15.4C8 15.1878 7.91571 14.9844 7.76569 14.8343C7.61566 14.6843 7.41217 14.6 7.2 14.6H4L3.7552 14.5872C3.16421 14.5266 2.6167 14.249 2.21859 13.808C1.82048 13.367 1.60007 12.7941 1.6 12.2V4.20001L1.6128 3.95521C1.6688 3.40594 1.91247 2.89278 2.30273 2.50223C2.69299 2.11168 3.20597 1.86763 3.7552 1.81121L4 1.80001Z" fill="black"/>
<path d="M18 7.5V10M18 10V12.5M18 10H20.5M18 10H15.5" stroke="black" stroke-linecap="round"/>
</g>
<defs>
<clipPath id="clip0_373_767">
<rect width="24" height="21" fill="white" transform="matrix(-1 0 0 1 24 0)"/>
</clipPath>
</defs>
</svg>
