<svg width="59" height="50" viewBox="0 0 59 50" fill="none" xmlns="http://www.w3.org/2000/svg">
<path d="M0.60834 23.138C-0.198357 23.938 -0.203796 25.2405 0.596191 26.0472L13.6327 39.193C14.4327 39.9997 15.7352 40.0051 16.5418 39.2052C17.3485 38.4052 17.354 37.1027 16.554 36.296L4.96599 24.6108L16.6512 13.0228C17.4579 12.2228 17.4633 10.9203 16.6633 10.1137C15.8633 9.30695 14.5609 9.30152 13.7542 10.1015L0.60834 23.138ZM37.7043 26.8046C38.8404 26.8094 39.7652 25.8922 39.77 24.7561C39.7747 23.6201 38.8576 22.6952 37.7215 22.6905L37.7129 24.7476L37.7043 26.8046ZM2.05684 24.5987L2.04825 26.6557L37.7043 26.8046L37.7129 24.7476L37.7215 22.6905L2.06543 22.5416L2.05684 24.5987Z" fill="black"/>
<path d="M22.7157 5.20305C22.8747 2.30531 25.2811 0.010721 28.2159 0.0228509L52.9012 0.125937L53.1834 0.133951C55.9876 0.287974 58.2275 2.54646 58.358 5.35189L58.3636 5.63415L58.2033 44.0332C58.1909 46.9679 55.8761 49.355 52.9773 49.49L52.695 49.4956L28.0097 49.3925C24.9803 49.3798 22.5348 46.9137 22.5473 43.8843L22.5817 35.6559L26.6959 35.6731L26.6615 43.9015C26.6585 44.6587 27.2697 45.275 28.0269 45.2783L52.7122 45.3814C53.4694 45.3844 54.0857 44.7732 54.089 44.016L54.2494 5.61697C54.2525 4.85968 53.6413 4.2435 52.884 4.24016L28.1987 4.13707C27.4414 4.13404 26.8251 4.74512 26.8219 5.50243L26.7875 13.7309L22.6733 13.7137L22.7077 5.48525L22.7157 5.20305Z" fill="black"/>
</svg>
