<svg width="24" height="24" viewBox="0 0 24 24" fill="none" xmlns="http://www.w3.org/2000/svg">
<g opacity="0.8">
<path d="M4.09958 17.8094C4.15583 17.6041 4.03254 17.3186 3.91489 17.1128C3.87841 17.0514 3.83867 16.9919 3.79583 16.9347C2.78673 15.4044 2.24889 13.6115 2.24895 11.7785C2.23208 6.51673 6.5952 2.24689 11.9905 2.24689C16.6958 2.24689 20.6239 5.50658 21.5413 9.83361C21.679 10.4751 21.7486 11.1294 21.7489 11.7855C21.7489 17.0547 17.5541 21.3916 12.1588 21.3916C11.3005 21.3916 10.1432 21.176 9.51176 20.9992C8.88036 20.8225 8.24989 20.5881 8.08723 20.5253C7.92071 20.4614 7.74389 20.4285 7.56551 20.4283C7.371 20.4276 7.17837 20.4664 6.99926 20.5422L3.81926 21.6897C3.74977 21.7197 3.67612 21.739 3.60082 21.7469C3.54127 21.7467 3.48234 21.7347 3.42745 21.7116C3.37256 21.6885 3.32279 21.6548 3.28103 21.6123C3.23927 21.5698 3.20634 21.5195 3.18416 21.4643C3.16197 21.409 3.15096 21.3499 3.15176 21.2903C3.15567 21.2381 3.1651 21.1864 3.17989 21.1361L4.09958 17.8094Z" stroke="#201D2F" stroke-width="1.49989" stroke-miterlimit="10" stroke-linecap="round"/>
<path d="M7.50073 13.4969C8.32916 13.4969 9.00073 12.8253 9.00073 11.9969C9.00073 11.1685 8.32916 10.4969 7.50073 10.4969C6.67231 10.4969 6.00073 11.1685 6.00073 11.9969C6.00073 12.8253 6.67231 13.4969 7.50073 13.4969Z" fill="#201D2F"/>
<path d="M12.0028 13.4968C12.8312 13.4968 13.5028 12.8252 13.5028 11.9968C13.5028 11.1683 12.8312 10.4968 12.0028 10.4968C11.1744 10.4968 10.5028 11.1683 10.5028 11.9968C10.5028 12.8252 11.1744 13.4968 12.0028 13.4968Z" fill="#201D2F"/>
<path d="M16.5004 13.4969C17.3288 13.4969 18.0004 12.8253 18.0004 11.9969C18.0004 11.1685 17.3288 10.4969 16.5004 10.4969C15.6719 10.4969 15.0004 11.1685 15.0004 11.9969C15.0004 12.8253 15.6719 13.4969 16.5004 13.4969Z" fill="#201D2F"/>
</g>
</svg>
