<svg width="20" height="20" viewBox="0 0 20 20" fill="none" xmlns="http://www.w3.org/2000/svg">
<path d="M8.125 2.5C7.95924 2.5 7.80027 2.56585 7.68306 2.68306C7.56585 2.80027 7.5 2.95924 7.5 3.125C7.5 3.29076 7.56585 3.44973 7.68306 3.56694C7.80027 3.68415 7.95924 3.75 8.125 3.75H9.375V16.25H8.125C7.95924 16.25 7.80027 16.3158 7.68306 16.4331C7.56585 16.5503 7.5 16.7092 7.5 16.875C7.5 17.0408 7.56585 17.1997 7.68306 17.3169C7.80027 17.4342 7.95924 17.5 8.125 17.5H11.875C12.0408 17.5 12.1997 17.4342 12.3169 17.3169C12.4342 17.1997 12.5 17.0408 12.5 16.875C12.5 16.7092 12.4342 16.5503 12.3169 16.4331C12.1997 16.3158 12.0408 16.25 11.875 16.25H10.625V3.75H11.875C12.0408 3.75 12.1997 3.68415 12.3169 3.56694C12.4342 3.44973 12.5 3.29076 12.5 3.125C12.5 2.95924 12.4342 2.80027 12.3169 2.68306C12.1997 2.56585 12.0408 2.5 11.875 2.5H8.125ZM5 5H8.125V15H5C4.33696 15 3.70107 14.7366 3.23223 14.2678C2.76339 13.7989 2.5 13.163 2.5 12.5V7.5C2.5 6.83696 2.76339 6.20107 3.23223 5.73223C3.70107 5.26339 4.33696 5 5 5ZM15 15H11.875V5H15C15.663 5 16.2989 5.26339 16.7678 5.73223C17.2366 6.20107 17.5 6.83696 17.5 7.5V12.5C17.5 13.163 17.2366 13.7989 16.7678 14.2678C16.2989 14.7366 15.663 15 15 15Z" fill="#5B5B5B"/>
</svg>
