<svg width="24" height="24" viewBox="0 0 24 24" fill="none" xmlns="http://www.w3.org/2000/svg">
<g clip-path="url(#clip0_373_763)">
<path d="M3.5904 3.22081C2.60562 3.32219 1.69341 3.78515 1.03021 4.52017C0.367012 5.25518 -5.72205e-05 6.21002 0 7.20001V15.2C-5.72205e-05 16.19 0.367012 17.1448 1.03021 17.8799C1.69341 18.6149 2.60562 19.0778 3.5904 19.1792L4 19.2H6.4V23.2C6.39972 23.3584 6.44648 23.5134 6.53437 23.6452C6.62225 23.777 6.7473 23.8798 6.89366 23.9405C7.04002 24.0011 7.20109 24.017 7.35646 23.986C7.51184 23.955 7.65451 23.8786 7.7664 23.7664L12.3296 19.2H20C21.0609 19.2 22.0783 18.7786 22.8284 18.0284C23.5786 17.2783 24 16.2609 24 15.2V7.20001C24 6.13915 23.5786 5.12173 22.8284 4.37159C22.0783 3.62144 21.0609 3.20001 20 3.20001H4L3.5904 3.22081ZM20 4.80001C20.6365 4.80001 21.247 5.05287 21.6971 5.50296C22.1471 5.95304 22.4 6.56349 22.4 7.20001V15.2C22.4 15.8365 22.1471 16.447 21.6971 16.8971C21.247 17.3472 20.6365 17.6 20 17.6H12L11.8432 17.616C11.6882 17.6465 11.5456 17.7222 11.4336 17.8336L8 21.2704V18.4C8 18.1878 7.91571 17.9844 7.76569 17.8343C7.61566 17.6843 7.41217 17.6 7.2 17.6H4L3.7552 17.5872C3.16421 17.5266 2.6167 17.249 2.21859 16.808C1.82048 16.3671 1.60007 15.7941 1.6 15.2V7.20001L1.6128 6.95521C1.6688 6.40594 1.91247 5.89278 2.30273 5.50223C2.69299 5.11168 3.20597 4.86763 3.7552 4.81121L4 4.80001H20Z" fill="#201D2F"/>
</g>
<defs>
<clipPath id="clip0_373_763">
<rect width="24" height="24" fill="white" transform="matrix(-1 0 0 1 24 0)"/>
</clipPath>
</defs>
</svg>
