<?xml version="1.0" encoding="UTF-8"?>
<svg id="_Слой_1" data-name="Слой_1" xmlns="http://www.w3.org/2000/svg" version="1.1" viewBox="0 0 25 24">
  <!-- Generator: Adobe Illustrator 29.6.1, SVG Export Plug-In . SVG Version: 2.1.1 Build 9)  -->
  <defs>
    <style>
      .st0 {
        fill-rule: evenodd;
      }

      .st0, .st1 {
        fill: #fff;
      }
    </style>
  </defs>
  <path class="st1" d="M1.5,13.2c-.29,0-.57.12-.78.32-.21.21-.32.49-.32.78v2.2c0,.29.12.57.32.78.21.21.49.32.78.32s.57-.12.78-.32c.21-.21.32-.49.32-.78v-2.2c0-.29-.12-.57-.32-.78-.21-.21-.49-.32-.78-.32ZM23.5,13.2c-.29,0-.57.12-.78.32-.21.21-.32.49-.32.78v2.2c0,.29.12.57.32.78s.49.32.78.32.57-.12.78-.32.32-.49.32-.78v-2.2c0-.29-.12-.57-.32-.78-.21-.21-.49-.32-.78-.32ZM18,5.5h-4.4v-1.41c.33-.19.61-.47.8-.8.19-.33.3-.71.3-1.09,0-.58-.23-1.14-.64-1.56-.41-.41-.97-.64-1.56-.64s-1.14.23-1.56.64c-.41.41-.64.97-.64,1.56,0,.38.11.76.3,1.09.19.33.47.61.8.8v1.41h-4.4c-.88,0-1.71.35-2.33.97s-.97,1.46-.97,2.33v9.9c0,.88.35,1.71.97,2.33.62.62,1.46.97,2.33.97h11c.88,0,1.71-.35,2.33-.97.62-.62.97-1.46.97-2.33v-9.9c0-.88-.35-1.71-.97-2.33-.62-.62-1.46-.97-2.33-.97ZM16.66,7.7h1.34c.29,0,.57.12.78.32.21.21.32.49.32.78v9.9c0,.29-.12.57-.32.78-.21.21-.49.32-.78.32H7c-.29,0-.57-.12-.78-.32-.21-.21-.32-.49-.32-.78v-9.9c0-.29.12-.57.32-.78.21-.21.49-.32.78-.32h1.34"/>
  <path class="st0" d="M9.2,14.3c.29,0,.57.12.78.32.21.21.32.49.32.78,0,.22-.06.43-.18.61-.12.18-.29.32-.49.41-.2.08-.42.1-.64.06-.21-.04-.41-.15-.56-.3-.15-.15-.26-.35-.3-.56-.04-.21-.02-.43.06-.64.08-.2.22-.37.41-.49.18-.12.39-.19.61-.19ZM15.8,14.3c.29,0,.57.12.78.32.21.21.32.49.32.78,0,.22-.06.43-.19.61-.12.18-.29.32-.49.41-.2.08-.42.1-.64.06-.21-.04-.41-.15-.56-.3-.15-.15-.26-.35-.3-.56-.04-.21-.02-.43.06-.64.08-.2.22-.37.41-.49.18-.12.39-.19.61-.19Z"/>
</svg>