<svg width="20" height="30" viewBox="0 0 20 30" fill="none" xmlns="http://www.w3.org/2000/svg">
<path d="M15.9004 14.9973H7.22852C5.99882 14.9973 5.00195 15.9942 5.00195 17.2239V25.8958C5.00195 27.1255 5.99882 28.1223 7.22852 28.1223H15.9004C17.1301 28.1223 18.127 27.1255 18.127 25.8958V17.2239C18.127 15.9942 17.1301 14.9973 15.9004 14.9973Z" stroke="white" stroke-width="1.49989" stroke-linejoin="round"/>
<path d="M14.9829 14.9972L15.0024 14.0597C15.0008 13.48 14.7698 12.9246 14.3599 12.5147C13.95 12.1048 13.3946 11.8738 12.8149 11.8722H4.37744C3.715 11.8742 3.08025 12.1382 2.61184 12.6066C2.14342 13.075 1.8794 13.7098 1.87744 14.3722V22.8097C1.87909 23.3894 2.11009 23.9448 2.51997 24.3547C2.92985 24.7646 3.48529 24.9955 4.06494 24.9972H5.00244" stroke="white" stroke-width="1.49989" stroke-linecap="round" stroke-linejoin="round"/>
</svg>
