<svg width="24" height="24" viewBox="0 0 24 24" fill="none" xmlns="http://www.w3.org/2000/svg">
<g opacity="0.8">
<path d="M4.09961 17.8094C4.15586 17.6041 4.03257 17.3186 3.91492 17.1128C3.87844 17.0514 3.8387 16.9919 3.79586 16.9347C2.78676 15.4044 2.24892 13.6115 2.24898 11.7785C2.23211 6.51673 6.59523 2.24689 11.9905 2.24689C16.6959 2.24689 20.624 5.50658 21.5413 9.83361C21.679 10.4751 21.7486 11.1294 21.749 11.7855C21.749 17.0547 17.5541 21.3916 12.1588 21.3916C11.3005 21.3916 10.1432 21.176 9.51179 20.9992C8.88039 20.8225 8.24992 20.5881 8.08726 20.5253C7.92074 20.4614 7.74392 20.4285 7.56554 20.4283C7.37103 20.4276 7.1784 20.4664 6.99929 20.5422L3.81929 21.6897C3.7498 21.7197 3.67615 21.739 3.60086 21.7469C3.5413 21.7467 3.48237 21.7347 3.42748 21.7116C3.37259 21.6885 3.32283 21.6548 3.28106 21.6123C3.2393 21.5698 3.20638 21.5195 3.18419 21.4643C3.162 21.409 3.15099 21.3499 3.15179 21.2903C3.1557 21.2381 3.16513 21.1864 3.17992 21.1361L4.09961 17.8094Z" stroke="white" stroke-width="1.49989" stroke-miterlimit="10" stroke-linecap="round"/>
<path d="M7.50076 13.4969C8.32919 13.4969 9.00076 12.8253 9.00076 11.9969C9.00076 11.1685 8.32919 10.4969 7.50076 10.4969C6.67234 10.4969 6.00076 11.1685 6.00076 11.9969C6.00076 12.8253 6.67234 13.4969 7.50076 13.4969Z" fill="white"/>
<path d="M12.0027 13.4968C12.8312 13.4968 13.5027 12.8252 13.5027 11.9968C13.5027 11.1683 12.8312 10.4968 12.0027 10.4968C11.1743 10.4968 10.5027 11.1683 10.5027 11.9968C10.5027 12.8252 11.1743 13.4968 12.0027 13.4968Z" fill="white"/>
<path d="M16.5003 13.4969C17.3288 13.4969 18.0003 12.8253 18.0003 11.9969C18.0003 11.1685 17.3288 10.4969 16.5003 10.4969C15.6719 10.4969 15.0003 11.1685 15.0003 11.9969C15.0003 12.8253 15.6719 13.4969 16.5003 13.4969Z" fill="white"/>
</g>
</svg>
