<svg width="60" height="60" viewBox="0 0 60 60" fill="none" xmlns="http://www.w3.org/2000/svg">
<g opacity="0.7">
<path d="M45.1063 51.3125V44.9375V8.6875C45.1063 8.3425 44.8263 8.0625 44.4813 8.0625H18.9563C16.7163 8.0625 14.8938 9.885 14.8938 12.125V48.125C14.8938 50.2275 16.6038 51.9375 18.7063 51.9375H44.4813C44.8263 51.9375 45.1063 51.6575 45.1063 51.3125ZM43.8563 44.3125H19.5813V9.3125H43.8563V44.3125ZM18.7063 45.5625H41.6663V47.5H16.2288C16.34 47.0537 16.5638 46.6437 16.9025 46.3125C17.375 45.8287 18.0163 45.5625 18.7063 45.5625ZM16.1438 12.125C16.1438 10.79 17.0813 9.67375 18.3313 9.3875V44.3463C18.2113 44.3575 18.0888 44.3612 17.9713 44.3837C17.8925 44.3987 17.8188 44.4287 17.7413 44.4487C17.585 44.49 17.4275 44.5288 17.2788 44.5888C17.1913 44.6238 17.1113 44.6737 17.0275 44.715C16.8975 44.78 16.7663 44.8412 16.645 44.9212C16.56 44.9762 16.485 45.0437 16.405 45.105C16.3188 45.1725 16.225 45.23 16.145 45.305V12.125H16.1438ZM43.8563 50.6875H18.7063C17.51 50.6875 16.5113 49.86 16.23 48.75H42.2913C42.6363 48.75 42.9163 48.47 42.9163 48.125V45.5625H43.8563V50.6875Z" fill="#010101"/>
<path d="M26.925 23.0625H35.3625C35.7075 23.0625 35.9875 22.7825 35.9875 22.4375V14.9375C35.9875 14.5925 35.7075 14.3125 35.3625 14.3125H26.925C26.58 14.3125 26.3 14.5925 26.3 14.9375V22.4375C26.3 22.7838 26.58 23.0625 26.925 23.0625ZM27.55 15.5625H34.7375V21.8125H27.55V15.5625Z" fill="#010101"/>
<path d="M25.4412 30.5625H37.0037C37.3487 30.5625 37.6287 30.2825 37.6287 29.9375C37.6287 29.5925 37.3487 29.3125 37.0037 29.3125H25.4412C25.0962 29.3125 24.8162 29.5925 24.8162 29.9375C24.8162 30.2825 25.0949 30.5625 25.4412 30.5625Z" fill="#010101"/>
</g>
</svg>
