<svg width="60" height="60" viewBox="0 0 60 60" fill="none" xmlns="http://www.w3.org/2000/svg">
<g opacity="0.7">
<path d="M53.525 28.525L31.45 6.45C30.525 5.525 29.25 5 27.925 5H10C7.25 5 5 7.25 5 10V27.925C5 29.25 5.525 30.525 6.475 31.45L28.55 53.525C30.5 55.475 33.675 55.475 35.625 53.525L53.55 35.6C55.5 33.65 55.5 30.5 53.525 28.525ZM32.075 50L10 27.925V10H27.925L50 32.075L32.075 50Z" fill="black"/>
<path d="M16.25 20C18.3211 20 20 18.3211 20 16.25C20 14.1789 18.3211 12.5 16.25 12.5C14.1789 12.5 12.5 14.1789 12.5 16.25C12.5 18.3211 14.1789 20 16.25 20Z" fill="black"/>
</g>
</svg>
