<svg width="70" height="70" viewBox="0 0 70 70" fill="none" xmlns="http://www.w3.org/2000/svg">
<g opacity="0.7">
<path d="M43.7501 40.8333L49.7147 36.3621C56.7847 31.0567 59.9142 20.3583 58.3334 11.6667C49.6388 10.0858 38.9405 13.2154 33.638 20.2854L29.1667 26.25M43.7501 40.8333L33.5417 48.125L21.8751 36.4583L29.1667 26.25M43.7501 40.8333V48.6121C43.7501 51.1364 42.9313 53.5926 41.4167 55.6121L39.3751 58.3333L36.4584 55.4167M29.1667 26.25H21.388C18.8637 26.25 16.4075 27.0687 14.388 28.5833L11.6667 30.625L14.5834 33.5417M24.7917 52.5L14.5834 55.4167L17.9842 45.2083M45.2084 27.7083C45.982 27.7083 46.7238 27.401 47.2708 26.8541C47.8178 26.3071 48.1251 25.5652 48.1251 24.7917C48.1251 24.0181 47.8178 23.2762 47.2708 22.7293C46.7238 22.1823 45.982 21.875 45.2084 21.875C44.4349 21.875 43.693 22.1823 43.146 22.7293C42.599 23.2762 42.2917 24.0181 42.2917 24.7917C42.2917 25.5652 42.599 26.3071 43.146 26.8541C43.693 27.401 44.4349 27.7083 45.2084 27.7083Z" stroke="black" stroke-width="6" stroke-linecap="round" stroke-linejoin="round"/>
</g>
</svg>
