<svg width="60" height="60" viewBox="0 0 60 60" fill="none" xmlns="http://www.w3.org/2000/svg">
<g opacity="0.7">
<path d="M17.8126 35.625C16.1438 35.625 14.5125 36.1199 13.1249 37.047C11.7374 37.9741 10.6559 39.2919 10.0173 40.8336C9.37872 42.3754 9.21163 44.0719 9.53719 45.7086C9.86275 47.3453 10.6663 48.8487 11.8464 50.0287C13.0264 51.2087 14.5298 52.0123 16.1665 52.3379C17.8032 52.6634 19.4997 52.4963 21.0415 51.8577C22.5832 51.2191 23.901 50.1377 24.8281 48.7501C25.7552 47.3626 26.2501 45.7313 26.2501 44.0625C26.2501 41.8247 25.3611 39.6786 23.7788 38.0963C22.1964 36.5139 20.0503 35.625 17.8126 35.625ZM17.8126 48.75C16.8855 48.75 15.9792 48.4751 15.2083 47.96C14.4375 47.4449 13.8367 46.7129 13.4819 45.8563C13.1271 44.9998 13.0343 44.0573 13.2151 43.148C13.396 42.2387 13.8424 41.4035 14.498 40.7479C15.1536 40.0924 15.9888 39.6459 16.8981 39.4651C17.8074 39.2842 18.7499 39.377 19.6064 39.7318C20.4629 40.0866 21.195 40.6874 21.7101 41.4583C22.2252 42.2291 22.5001 43.1354 22.5001 44.0625C22.5001 44.6781 22.3788 45.2876 22.1433 45.8563C21.9077 46.425 21.5624 46.9418 21.1271 47.3771C20.6919 47.8123 20.1751 48.1576 19.6064 48.3932C19.0377 48.6288 18.4281 48.75 17.8126 48.75ZM9.9235 24.9234L13.2868 21.5625L9.9235 18.2016C9.57168 17.8497 9.37402 17.3726 9.37402 16.875C9.37402 16.3774 9.57168 15.9003 9.9235 15.5484C10.2753 15.1966 10.7525 14.999 11.2501 14.999C11.7476 14.999 12.2248 15.1966 12.5766 15.5484L15.9376 18.9117L19.2985 15.5484C19.6503 15.1966 20.1275 14.999 20.6251 14.999C21.1226 14.999 21.5998 15.1966 21.9516 15.5484C22.3035 15.9003 22.5011 16.3774 22.5011 16.875C22.5011 17.3726 22.3035 17.8497 21.9516 18.2016L18.5883 21.5625L21.9516 24.9234C22.3035 25.2753 22.5011 25.7524 22.5011 26.25C22.5011 26.7476 22.3035 27.2247 21.9516 27.5766C21.5998 27.9284 21.1226 28.126 20.6251 28.126C20.1275 28.126 19.6503 27.9284 19.2985 27.5766L15.9376 24.2133L12.5766 27.5766C12.2248 27.9284 11.7476 28.126 11.2501 28.126C10.7525 28.126 10.2753 27.9284 9.9235 27.5766C9.57168 27.2247 9.37402 26.7476 9.37402 26.25C9.37402 25.7524 9.57168 25.2753 9.9235 24.9234ZM53.8266 47.4234C54.0008 47.5976 54.139 47.8045 54.2333 48.0321C54.3276 48.2597 54.3761 48.5036 54.3761 48.75C54.3761 48.9964 54.3276 49.2403 54.2333 49.4679C54.139 49.6955 54.0008 49.9024 53.8266 50.0766C53.6524 50.2508 53.4456 50.389 53.218 50.4832C52.9904 50.5775 52.7464 50.626 52.5001 50.626C52.2537 50.626 52.0098 50.5775 51.7821 50.4832C51.5545 50.389 51.3477 50.2508 51.1735 50.0766L47.8126 46.7133L44.4516 50.0766C44.0998 50.4284 43.6226 50.626 43.1251 50.626C42.6275 50.626 42.1503 50.4284 41.7985 50.0766C41.4467 49.7247 41.249 49.2476 41.249 48.75C41.249 48.2524 41.4467 47.7753 41.7985 47.4234L45.1618 44.0625L41.7985 40.7016C41.4467 40.3497 41.249 39.8726 41.249 39.375C41.249 38.8774 41.4467 38.4003 41.7985 38.0484C42.1503 37.6966 42.6275 37.499 43.1251 37.499C43.6226 37.499 44.0998 37.6966 44.4516 38.0484L47.8126 41.4117L51.1735 38.0484C51.5253 37.6966 52.0025 37.499 52.5001 37.499C52.9976 37.499 53.4748 37.6966 53.8266 38.0484C54.1785 38.4003 54.3761 38.8774 54.3761 39.375C54.3761 39.8726 54.1785 40.3497 53.8266 40.7016L50.4634 44.0625L53.8266 47.4234ZM43.2352 26.4445C41.7868 31.6781 37.3008 36.2016 32.3298 37.4437C32.1811 37.481 32.0284 37.4999 31.8751 37.5C31.4179 37.4992 30.9767 37.3313 30.6346 37.0279C30.2925 36.7246 30.073 36.3067 30.0174 35.8529C29.9619 35.3991 30.074 34.9406 30.3328 34.5637C30.5916 34.1868 30.9792 33.9174 31.4227 33.8063C35.086 32.8898 38.536 29.3742 39.6259 25.4437C40.3735 22.7484 40.3805 18.6469 36.1782 14.4516L35.6251 13.9008V18.75C35.6251 19.2473 35.4275 19.7242 35.0759 20.0758C34.7243 20.4275 34.2473 20.625 33.7501 20.625C33.2528 20.625 32.7759 20.4275 32.4242 20.0758C32.0726 19.7242 31.8751 19.2473 31.8751 18.75V9.375C31.8751 8.87772 32.0726 8.40081 32.4242 8.04918C32.7759 7.69754 33.2528 7.5 33.7501 7.5H43.1251C43.6224 7.5 44.0993 7.69754 44.4509 8.04918C44.8025 8.40081 45.0001 8.87772 45.0001 9.375C45.0001 9.87228 44.8025 10.3492 44.4509 10.7008C44.0993 11.0525 43.6224 11.25 43.1251 11.25H38.2758L38.8266 11.7984C43.1016 16.0758 44.6673 21.2766 43.2352 26.4445Z" fill="black"/>
</g>
</svg>
