<svg width="800" height="800" viewBox="0 0 800 800" fill="none" xmlns="http://www.w3.org/2000/svg">
<g opacity="0.7" clip-path="url(#clip0_2002_408)">
<path d="M323.599 37.3047V207.959C323.599 218.897 314.761 227.711 303.872 227.711H298.599C287.709 227.711 278.847 218.897 278.847 207.959V36.5234C278.847 8.39844 259.927 0 241.786 0C223.645 0 204.725 8.39844 204.725 36.5234V207.959C204.725 218.897 195.863 227.711 184.974 227.711H179.7C168.811 227.711 159.974 218.897 159.974 207.959V37.3047C159.974 -13.0375 88.1954 -11.3281 88.1954 37.8656C88.1954 96.7766 88.1954 200.83 88.1954 200.83C87.8532 291.308 109.484 314.819 145.178 343.017C173.963 365.722 198.547 378.734 198.547 435.131V797.925H285.022V435.131C285.022 378.734 309.606 365.722 338.391 343.017C374.108 314.819 395.716 291.308 395.374 200.83C395.374 200.83 395.374 96.7766 395.374 37.8656C395.375 -11.3281 323.599 -13.0375 323.599 37.3047Z" fill="black"/>
<path d="M601.919 54.2968C583.559 105.786 530.703 226.416 527.358 332.959C522.181 498.341 623.525 473.878 625.331 582.227V798.927H711.391L711.806 800.001C711.806 800.001 711.806 799.562 711.806 798.927C711.806 784.448 711.806 612.012 711.806 436.109C711.806 262.111 711.806 84.864 711.806 54.2984C711.806 -8.49693 630.506 -25.8297 601.919 54.2968Z" fill="black"/>
</g>
<defs>
<clipPath id="clip0_2002_408">
<rect width="800" height="800" fill="white"/>
</clipPath>
</defs>
</svg>
