<svg width="60" height="60" viewBox="0 0 60 60" fill="none" xmlns="http://www.w3.org/2000/svg">
<g opacity="0.7" clip-path="url(#clip0_239_4055)">
<path fill-rule="evenodd" clip-rule="evenodd" d="M43.125 52.5C52.4625 52.5 60 48.75 60 43.125V7.5C60 3.75 52.5 0 43.125 0C33.75 0 26.25 3.75 26.25 7.5V20.625C30.6375 22.4625 34.3875 25.5375 37.05 29.4375C38.8875 29.7975 40.9125 29.9963 43.125 29.9963C48.0375 29.9963 52.125 29.0175 55.05 27.4237C55.4653 27.1955 55.8695 26.9477 56.2613 26.6812V31.8562C56.2613 32.7375 55.56 34.1063 53.2537 35.3662C51.0188 36.585 47.5913 37.4813 43.1288 37.4813C42.2363 37.4813 41.3863 37.4475 40.5788 37.38C40.8788 38.6125 41.0787 39.875 41.1788 41.1675C41.8112 41.2025 42.4613 41.22 43.1288 41.22C48.0413 41.22 52.1287 40.2412 55.0537 38.6475C55.469 38.4193 55.8732 38.1715 56.265 37.905V43.08C56.265 43.965 55.7063 45.2775 53.2988 46.575C50.9288 47.85 47.3738 48.705 43.1363 48.705C42.2738 48.705 41.4388 48.67 40.6313 48.6C40.343 49.8464 39.9555 51.0678 39.4725 52.2525C40.6525 52.385 41.8725 52.4513 43.1325 52.4513L43.125 52.5ZM53.25 24.15C55.5562 22.89 56.2575 21.5212 56.2575 20.64V15.465C55.87 15.73 55.4662 15.9775 55.0462 16.2075C52.1287 17.8013 48.0337 18.78 43.1212 18.78C38.2087 18.78 34.1213 17.8013 31.1963 16.2075C30.781 15.9793 30.3768 15.7315 29.985 15.465V20.64C29.985 21.5212 30.6863 22.89 32.9925 24.1462C35.2275 25.365 38.655 26.2612 43.1175 26.2612C47.58 26.2612 50.9925 25.365 53.2425 24.1462L53.25 24.15ZM30 9.375C30 8.295 30.4687 7.25625 31.3425 6.6225C31.8187 6.2775 32.3363 5.9325 32.745 5.745C33.7688 5.2725 38.895 3.74625 43.1325 3.74625C47.37 3.74625 51.045 4.5975 53.52 5.745C53.985 5.95875 54.4988 6.2925 54.9525 6.6225C55.8188 7.24875 56.265 8.28 56.265 9.34875V9.37125C56.265 10.2525 55.5637 11.6213 53.2575 12.8812C51.0225 14.1 47.595 14.9963 43.1325 14.9963C38.67 14.9963 35.2575 14.0962 33.0075 12.8812C30.7013 11.625 30 10.2525 30 9.375Z" fill="black"/>
<path fill-rule="evenodd" clip-rule="evenodd" d="M33.75 43.125C33.75 52.4625 26.2125 60 16.875 60C7.5375 60 0 52.4625 0 43.125C0 33.7875 7.5375 26.25 16.875 26.25C26.2125 26.25 33.75 33.7875 33.75 43.125ZM30 43.125C30 50.3625 24.1125 56.25 16.875 56.25C9.6375 56.25 3.75 50.3625 3.75 43.125C3.75 35.8875 9.6375 30 16.875 30C24.1125 30 30 35.8875 30 43.125Z" fill="black"/>
</g>
<defs>
<clipPath id="clip0_239_4055">
<rect width="60" height="60" fill="white"/>
</clipPath>
</defs>
</svg>
