<svg width="60" height="60" viewBox="0 0 60 60" fill="none" xmlns="http://www.w3.org/2000/svg">
<g opacity="0.7">
<path d="M47.5 17.5H12.5C11.837 17.5 11.2011 17.7634 10.7322 18.2322C10.2634 18.7011 10 19.337 10 20V52.5C10 53.163 10.2634 53.7989 10.7322 54.2678C11.2011 54.7366 11.837 55 12.5 55H47.5C48.163 55 48.7989 54.7366 49.2678 54.2678C49.7366 53.7989 50 53.163 50 52.5V20C50 19.337 49.7366 18.7011 49.2678 18.2322C48.7989 17.7634 48.163 17.5 47.5 17.5Z" stroke="black" stroke-width="6" stroke-linecap="round" stroke-linejoin="round"/>
<path d="M21 17V11C21 10.2121 21.2328 9.43185 21.6851 8.7039C22.1374 7.97595 22.8003 7.31451 23.636 6.75736C24.4718 6.20021 25.4639 5.75825 26.5558 5.45672C27.6478 5.15519 28.8181 5 30 5C31.1819 5 32.3522 5.15519 33.4441 5.45672C34.5361 5.75825 35.5282 6.20021 36.364 6.75736C37.1997 7.31451 37.8626 7.97595 38.3149 8.7039C38.7672 9.43185 39 10.2121 39 11V17" stroke="black" stroke-width="6" stroke-linecap="round" stroke-linejoin="round"/>
</g>
</svg>
