<svg width="70" height="70" viewBox="0 0 70 70" fill="none" xmlns="http://www.w3.org/2000/svg">
<g opacity="0.53">
<path fill-rule="evenodd" clip-rule="evenodd" d="M40.8333 59.7917V12.3958C40.8333 10.2725 40.8274 8.89584 40.6933 7.88668C40.5649 6.93876 40.3578 6.64126 40.1916 6.47501C40.0253 6.30876 39.7278 6.10168 38.7799 5.97334C37.7678 5.83918 36.3941 5.83334 34.2708 5.83334C32.1474 5.83334 30.7708 5.83918 29.7616 5.97334C28.8137 6.10168 28.5162 6.30876 28.3499 6.47501C28.1837 6.64126 27.9766 6.93876 27.8483 7.88668C27.7141 8.89876 27.7083 10.2725 27.7083 12.3958V59.7917H40.8333Z" fill="black"/>
<path opacity="0.7" d="M23.3333 25.5208C23.3333 24.9407 23.1028 24.3843 22.6925 23.974C22.2823 23.5638 21.7259 23.3333 21.1458 23.3333H12.3958C11.8156 23.3333 11.2592 23.5638 10.849 23.974C10.4387 24.3843 10.2083 24.9407 10.2083 25.5208V59.7917H23.3333V25.5208ZM58.3333 40.1042C58.3333 39.524 58.1028 38.9676 57.6926 38.5574C57.2823 38.1471 56.7259 37.9167 56.1458 37.9167H47.3958C46.8156 37.9167 46.2592 38.1471 45.849 38.5574C45.4387 38.9676 45.2083 39.524 45.2083 40.1042V59.7917H58.3333V40.1042Z" fill="black"/>
<path opacity="0.5" d="M5.10425 59.7917C4.52409 59.7917 3.96769 60.0221 3.55745 60.4324C3.14722 60.8426 2.91675 61.399 2.91675 61.9792C2.91675 62.5593 3.14722 63.1157 3.55745 63.526C3.96769 63.9362 4.52409 64.1667 5.10425 64.1667H63.4376C64.0177 64.1667 64.5741 63.9362 64.9844 63.526C65.3946 63.1157 65.6251 62.5593 65.6251 61.9792C65.6251 61.399 65.3946 60.8426 64.9844 60.4324C64.5741 60.0221 64.0177 59.7917 63.4376 59.7917H5.10425Z" fill="black"/>
</g>
</svg>
