<svg width="800" height="800" viewBox="0 0 800 800" fill="none" xmlns="http://www.w3.org/2000/svg">
<g opacity="0.7">
<path d="M616.667 300.001H550M550 300.001H483.333M550 300.001V233.333M550 300.001V366.667" stroke="black" stroke-width="50" stroke-linecap="round"/>
<path d="M400 185.804L381.74 202.878C386.466 207.934 393.076 210.804 400 210.804C406.923 210.804 413.533 207.934 418.26 202.878L400 185.804ZM88.3862 456.07C95.5315 467.887 110.901 471.67 122.716 464.527C134.53 457.38 138.315 442.01 131.17 430.197L88.3862 456.07ZM217.911 539.023C208.279 529.13 192.45 528.92 182.558 538.553C172.666 548.183 172.456 564.013 182.089 573.903L217.911 539.023ZM91.6665 310.583C91.6665 213.763 133.922 153.91 186.2 133.44C238.364 113.014 311.346 127.593 381.74 202.878L418.26 168.73C338.66 83.5946 244.974 56.729 167.97 86.8816C91.0805 116.989 41.6665 199.736 41.6665 310.583H91.6665ZM517.03 665.367C566.776 624.997 626.38 570.893 673.756 510.467C720.653 450.653 758.333 381.18 758.333 310.582H708.333C708.333 364.297 679.023 422.713 634.41 479.613C590.28 535.9 533.853 587.323 485.523 626.543L517.03 665.367ZM758.333 310.582C758.333 199.736 708.92 116.989 632.03 86.8816C555.026 56.729 461.34 83.5946 381.74 168.73L418.26 202.878C488.653 127.593 561.636 113.014 613.8 133.44C666.076 153.91 708.333 213.762 708.333 310.582H758.333ZM282.971 665.367C325.352 699.76 354.743 725 400 725V675C375.903 675 360.897 664.21 314.477 626.543L282.971 665.367ZM485.523 626.543C439.103 664.21 424.096 675 400 675V725C445.256 725 474.646 699.76 517.03 665.367L485.523 626.543ZM131.17 430.197C106.27 389.027 91.6665 348.5 91.6665 310.583H41.6665C41.6665 360.99 60.8818 410.597 88.3862 456.07L131.17 430.197ZM314.477 626.543C283.91 601.737 249.964 571.94 217.911 539.023L182.089 573.903C215.849 608.573 251.332 639.693 282.971 665.367L314.477 626.543Z" fill="black"/>
</g>
</svg>
