<svg width="23" height="23" viewBox="0 0 23 23" fill="none" xmlns="http://www.w3.org/2000/svg">
<path d="M11.5 1.91675C9.72084 1.91675 8.01455 2.62352 6.75649 3.88157C5.49844 5.13963 4.79167 6.84592 4.79167 8.62508V12.0061C4.79181 12.1547 4.75736 12.3014 4.69104 12.4345L3.04558 15.7244C2.96521 15.8851 2.92725 16.0638 2.93533 16.2433C2.9434 16.4228 2.99724 16.5973 3.09172 16.7502C3.18621 16.903 3.3182 17.0292 3.47517 17.1167C3.63214 17.2042 3.80888 17.2501 3.98858 17.2501H19.0114C19.1911 17.2501 19.3679 17.2042 19.5248 17.1167C19.6818 17.0292 19.8138 16.903 19.9083 16.7502C20.0028 16.5973 20.0566 16.4228 20.0647 16.2433C20.0728 16.0638 20.0348 15.8851 19.9544 15.7244L18.3099 12.4345C18.2433 12.3015 18.2085 12.1548 18.2083 12.0061V8.62508C18.2083 6.84592 17.5016 5.13963 16.2435 3.88157C14.9855 2.62352 13.2792 1.91675 11.5 1.91675ZM11.5 20.1251C10.9052 20.1254 10.325 19.9412 9.83923 19.5979C9.35349 19.2547 8.98618 18.7692 8.78792 18.2084H14.2121C14.0138 18.7692 13.6465 19.2547 13.1608 19.5979C12.675 19.9412 12.0948 20.1254 11.5 20.1251Z" fill="black"/>
</svg>
