<svg width="24" height="24" viewBox="0 0 24 24" fill="none" xmlns="http://www.w3.org/2000/svg">
<path fill-rule="evenodd" clip-rule="evenodd" d="M12 9.5C13.6569 9.5 15 8.15685 15 6.5C15 4.84315 13.6569 3.5 12 3.5C10.3431 3.5 9 4.84315 9 6.5C9 8.15685 10.3431 9.5 12 9.5ZM12 11.5C14.7614 11.5 17 9.26142 17 6.5C17 3.73858 14.7614 1.5 12 1.5C9.23858 1.5 7 3.73858 7 6.5C7 9.26142 9.23858 11.5 12 11.5Z" fill="#201D2F"/>
<path fill-rule="evenodd" clip-rule="evenodd" d="M9 15.5C6.79086 15.5 5 17.2909 5 19.5V20.5C5 21.0523 4.55228 21.5 4 21.5C3.44772 21.5 3 21.0523 3 20.5V19.5C3 16.1863 5.68629 13.5 9 13.5H15C18.3137 13.5 21 16.1863 21 19.5V20.5C21 21.0523 20.5523 21.5 20 21.5C19.4477 21.5 19 21.0523 19 20.5V19.5C19 17.2909 17.2091 15.5 15 15.5H9Z" fill="#201D2F"/>
</svg>
