<svg width="24" height="24" viewBox="0 0 24 24" fill="none" xmlns="http://www.w3.org/2000/svg">
<path opacity="0.5" d="M12.832 21.8009C15.958 21.1749 20 18.9259 20 13.1109C20 7.81993 16.127 4.29593 13.342 2.67693C12.723 2.31693 12 2.78993 12 3.50493V5.33293C12 6.77493 11.394 9.40693 9.71 10.5019C8.85 11.0609 7.92 10.2239 7.816 9.20393L7.73 8.36593C7.63 7.39193 6.638 6.80093 5.86 7.39493C4.461 8.45993 3 10.3299 3 13.1099C3 20.2209 8.289 21.9999 10.933 21.9999C11.0877 21.9999 11.249 21.9949 11.417 21.9849C11.863 21.9289 11.417 22.0839 12.832 21.7999" fill="#AD2023"/>
<path d="M8 18.4439C8 21.0639 10.111 21.8739 11.417 21.9859C11.863 21.9299 11.417 22.0849 12.832 21.8009C13.871 21.4339 15 20.4919 15 18.4439C15 17.1469 14.181 16.3459 13.54 15.9709C13.344 15.8559 13.116 16.0009 13.099 16.2269C13.043 16.9449 12.353 17.5169 11.884 16.9709C11.469 16.4889 11.294 15.7839 11.294 15.3329V14.7429C11.294 14.3889 10.937 14.1529 10.631 14.3349C9.495 15.0079 8 16.3939 8 18.4439Z" fill="#AD2023"/>
</svg>
