<svg width="24" height="24" viewBox="0 0 24 24" fill="none" xmlns="http://www.w3.org/2000/svg">
<path fill-rule="evenodd" clip-rule="evenodd" d="M14.856 15.686L14.756 15.936C12.9672 16.5334 11.0328 16.5334 9.244 15.936L9.144 15.686C9.049 15.456 9.001 15.34 8.918 15.234C8.836 15.127 8.692 15.019 8.404 14.804C7.39559 14.049 6.6504 12.9957 6.27404 11.7936C5.89768 10.5914 5.90925 9.30122 6.30711 8.10598C6.70497 6.91074 7.46894 5.87104 8.49072 5.13425C9.51251 4.39747 10.7403 4.00098 12 4.00098C13.2597 4.00098 14.4875 4.39747 15.5093 5.13425C16.5311 5.87104 17.295 6.91074 17.6929 8.10598C18.0908 9.30122 18.1023 10.5914 17.726 11.7936C17.3496 12.9957 16.6044 14.049 15.596 14.804C15.308 15.019 15.164 15.127 15.082 15.234C15 15.341 14.952 15.455 14.856 15.686ZM9.85 18.166C9.93667 18.694 9.986 19.2266 9.998 19.764C9.99901 19.835 10.0194 19.9043 10.0569 19.9646C10.0945 20.0249 10.1477 20.0738 10.211 20.106C10.7665 20.3837 11.379 20.5283 12 20.5283C12.621 20.5283 13.2335 20.3837 13.789 20.106C13.8523 20.0738 13.9055 20.0249 13.9431 19.9646C13.9806 19.9043 14.001 19.835 14.002 19.764C14.014 19.2266 14.0633 18.694 14.15 18.166C12.7314 18.4569 11.2686 18.4569 9.85 18.166Z" fill="#AD2023"/>
</svg>
