<svg width="59" height="50" viewBox="0 0 59 50" fill="none" xmlns="http://www.w3.org/2000/svg">
<path d="M0.60834 23.1385C-0.198357 23.9385 -0.203796 25.241 0.596191 26.0476L13.6327 39.1935C14.4327 40.0002 15.7352 40.0056 16.5418 39.2056C17.3485 38.4057 17.354 37.1032 16.554 36.2965L4.96599 24.6113L16.6512 13.0233C17.4579 12.2233 17.4633 10.9208 16.6633 10.1141C15.8633 9.30744 14.5609 9.302 13.7542 10.102L0.60834 23.1385ZM37.7043 26.8051C38.8404 26.8099 39.7652 25.8927 39.77 24.7566C39.7747 23.6205 38.8576 22.6957 37.7215 22.691L37.7129 24.748L37.7043 26.8051ZM2.05684 24.5991L2.04825 26.6562L37.7043 26.8051L37.7129 24.748L37.7215 22.691L2.06543 22.5421L2.05684 24.5991Z" fill="white"/>
<path d="M22.7157 5.20256C22.8747 2.30483 25.2811 0.0102327 28.2159 0.0223626L52.9012 0.125448L53.1834 0.133463C55.9876 0.287486 58.2275 2.54597 58.358 5.35141L58.3636 5.63366L58.2033 44.0327C58.1909 46.9674 55.8761 49.3545 52.9773 49.4895L52.695 49.4951L28.0097 49.392C24.9803 49.3793 22.5348 46.9132 22.5473 43.8838L22.5817 35.6554L26.6959 35.6726L26.6615 43.901C26.6585 44.6582 27.2697 45.2745 28.0269 45.2778L52.7122 45.3809C53.4694 45.3839 54.0857 44.7727 54.089 44.0156L54.2494 5.61648C54.2525 4.85919 53.6413 4.24301 52.884 4.23967L28.1987 4.13658C27.4414 4.13355 26.8251 4.74463 26.8219 5.50194L26.7875 13.7304L22.6733 13.7132L22.7077 5.48476L22.7157 5.20256Z" fill="white"/>
</svg>
