<svg width="24" height="24" viewBox="0 0 24 24" fill="none" xmlns="http://www.w3.org/2000/svg">
<path d="M7 14C6.56349 14.0007 6.13237 14.0966 5.73675 14.281C5.34112 14.4655 4.99051 14.734 4.7094 15.068C4.42828 15.4019 4.22343 15.7932 4.10913 16.2145C3.99484 16.6358 3.97386 17.0769 4.04765 17.5072C4.12145 17.9374 4.28824 18.3463 4.5364 18.7055C4.78455 19.0646 5.10809 19.3652 5.48442 19.5864C5.86076 19.8076 6.28082 19.944 6.71531 19.986C7.14979 20.0281 7.58822 19.9749 8 19.83" stroke="black" stroke-width="1.5" stroke-linecap="round" stroke-linejoin="round"/>
<path d="M4.264 15.6051C3.66556 15.317 3.14829 14.8844 2.75885 14.3464C2.36942 13.8083 2.12009 13.1818 2.03336 12.5233C1.94663 11.8648 2.02524 11.1951 2.26209 10.5746C2.49894 9.95408 2.88657 9.40231 3.39 8.96908M3.42 8.88808C3.09204 8.39733 2.9483 7.80637 3.01422 7.21981C3.08014 6.63326 3.35147 6.08894 3.78018 5.68323C4.20888 5.27751 4.76731 5.03657 5.35661 5.00305C5.9459 4.96953 6.52805 5.1456 7 5.50008M7.238 5.56508C7.07847 5.22612 6.99716 4.85565 7.00008 4.48104C7.00299 4.10644 7.09006 3.73727 7.25484 3.40084C7.41962 3.06441 7.6579 2.76931 7.95207 2.53735C8.24624 2.3054 8.58878 2.14252 8.95437 2.06076C9.31995 1.979 9.69924 1.98044 10.0642 2.06498C10.4292 2.14953 10.7704 2.31501 11.0628 2.5492C11.3552 2.78338 11.5913 3.08029 11.7535 3.41797C11.9157 3.75564 11.9999 4.12546 12 4.50008V20.0001C12 20.5305 11.7893 21.0392 11.4142 21.4143C11.0391 21.7894 10.5304 22.0001 10 22.0001C9.46957 22.0001 8.96086 21.7894 8.58579 21.4143C8.21072 21.0392 8 20.5305 8 20.0001M12 7.00008C12 7.79573 12.3161 8.55879 12.8787 9.1214C13.4413 9.68401 14.2044 10.0001 15 10.0001M17 14.0001C17.4365 14.0007 17.8676 14.0966 18.2633 14.2811C18.6589 14.4656 19.0095 14.7341 19.2906 15.0681C19.5717 15.402 19.7766 15.7933 19.8909 16.2146C20.0052 16.6359 20.0261 17.077 19.9524 17.5072C19.8786 17.9375 19.7118 18.3464 19.4636 18.7055C19.2154 19.0647 18.8919 19.3653 18.5156 19.5865C18.1392 19.8076 17.7192 19.944 17.2847 19.9861C16.8502 20.0282 16.4118 19.9749 16 19.8301" stroke="black" stroke-width="1.5" stroke-linecap="round" stroke-linejoin="round"/>
<path d="M19.736 15.6051C20.3344 15.317 20.8517 14.8844 21.2411 14.3464C21.6306 13.8083 21.8799 13.1818 21.9666 12.5233C22.0534 11.8648 21.9748 11.1951 21.7379 10.5746C21.5011 9.95408 21.1134 9.40231 20.61 8.96908M20.58 8.88808C20.908 8.39733 21.0517 7.80637 20.9858 7.21981C20.9199 6.63326 20.6485 6.08894 20.2198 5.68323C19.7911 5.27751 19.2327 5.03657 18.6434 5.00305C18.0541 4.96953 17.4719 5.1456 17 5.50008M12 4.50008C12.0001 4.12546 12.0843 3.75564 12.2465 3.41797C12.4087 3.08029 12.6448 2.78338 12.9372 2.5492C13.2296 2.31501 13.5708 2.14953 13.9358 2.06498C14.3008 1.98044 14.68 1.979 15.0456 2.06076C15.4112 2.14252 15.7538 2.3054 16.0479 2.53735C16.3421 2.76931 16.5804 3.06441 16.7452 3.40084C16.9099 3.73727 16.997 4.10644 16.9999 4.48104C17.0028 4.85565 16.9215 5.22612 16.762 5.56508M16 20.0001C16 20.5305 15.7893 21.0392 15.4142 21.4143C15.0391 21.7894 14.5304 22.0001 14 22.0001C13.4696 22.0001 12.9609 21.7894 12.5858 21.4143C12.2107 21.0392 12 20.5305 12 20.0001" stroke="black" stroke-width="1.5" stroke-linecap="round" stroke-linejoin="round"/>
</svg>
