<svg width="19" height="23" viewBox="0 0 19 23" fill="none" xmlns="http://www.w3.org/2000/svg">
<path fill-rule="evenodd" clip-rule="evenodd" d="M15.5686 0.0707453L15.8236 0.104241C16.4976 0.201589 17.3896 0.332433 17.8946 0.86209C18.3086 1.2944 18.4676 1.99782 18.5626 2.62587L18.6186 3.02992C18.7446 3.98246 18.7776 5.23019 18.5626 6.61609C18.1386 9.35126 16.7476 12.615 13.2546 15.1419C13.2356 15.3387 13.2346 15.5376 13.2386 15.7365L13.2486 16.0337C13.2646 16.4912 13.2806 16.9486 13.1586 17.3924C12.9686 18.0833 12.2916 18.5386 11.6586 18.8652L11.3486 19.0191L10.9486 19.2033C10.2006 19.5362 9.19061 19.8774 8.55761 19.2138C8.17761 18.817 8.02161 18.2351 7.89461 17.6562L7.84761 17.4395C7.79389 17.1661 7.72714 16.8957 7.64761 16.6293C7.59761 16.4758 7.54361 16.3205 7.48561 16.1635C7.42178 16.2456 7.35403 16.3242 7.28261 16.399C6.93761 16.7602 6.42261 17.0124 5.99861 17.1893C5.53561 17.3809 5.01161 17.5484 4.52661 17.6866L4.27761 17.7556L3.80061 17.8802L3.36861 17.9849L2.85161 18.1L2.52861 18.166C2.36752 18.1972 2.20159 18.1869 2.04514 18.1361C1.88868 18.0852 1.7464 17.9952 1.63056 17.874C1.51471 17.7527 1.42879 17.6038 1.38019 17.44C1.33159 17.2762 1.32179 17.1026 1.35161 16.9339L1.43761 16.4828L1.59161 15.7522L1.71561 15.2183L1.80961 14.8415C1.94161 14.3349 2.10161 13.7864 2.28561 13.3028C2.45361 12.8579 2.69461 12.3188 3.03961 11.9577L3.11961 11.8771L3.05561 11.8499C2.88469 11.7819 2.71158 11.7201 2.53661 11.6646L2.25961 11.5756C1.56561 11.3558 0.823613 11.1192 0.362613 10.6356C-0.197387 10.0505 -0.00838742 9.1597 0.261613 8.4186L0.371612 8.13179L0.548613 7.71309L0.695613 7.3886C1.00761 6.72705 1.44261 6.0184 2.10261 5.81951C2.45261 5.71484 2.81661 5.70856 3.18261 5.71903L3.40261 5.72635C3.68861 5.73682 3.97361 5.74833 4.25261 5.72007C6.66661 2.06272 9.78461 0.606683 12.3976 0.162859C13.4458 -0.0171038 14.5125 -0.0480883 15.5686 0.0707453ZM5.75661 13.3383C5.59928 13.2163 5.41117 13.1453 5.21562 13.1341C5.02007 13.1229 4.8257 13.1721 4.65661 13.2755L4.54661 13.353L4.45361 13.4399L4.32861 13.6053C4.06861 13.9988 3.92061 14.5432 3.80561 15.0519L3.69761 15.5418L3.64661 15.7647L3.83761 15.7166L4.25561 15.6161C4.83361 15.4748 5.47461 15.2916 5.86861 14.92C6.03992 14.7408 6.14327 14.5025 6.15945 14.2496C6.17564 13.9966 6.10356 13.7461 5.95661 13.5446L5.87461 13.4462L5.85061 13.4221L5.75661 13.3383ZM12.9396 6.03828C12.7539 5.84384 12.5335 5.68959 12.2908 5.58434C12.0482 5.47908 11.7881 5.42488 11.5255 5.42483C11.2628 5.42479 11.0027 5.47889 10.7601 5.58405C10.5174 5.68922 10.2969 5.84339 10.1111 6.03776C9.92536 6.23213 9.778 6.4629 9.67744 6.71688C9.57689 6.97086 9.52511 7.24309 9.52506 7.51802C9.52501 7.79295 9.5767 8.0652 9.67717 8.31922C9.77764 8.57324 9.92492 8.80406 10.1106 8.9985C10.4856 9.39119 10.9943 9.61186 11.5248 9.61195C12.0552 9.61205 12.564 9.39158 12.9391 8.99903C13.3143 8.60648 13.5251 8.07401 13.5252 7.51876C13.5253 6.96352 13.3146 6.43097 12.9396 6.03828Z" fill="#AD2023"/>
</svg>
