<svg width="24" height="24" viewBox="0 0 24 24" fill="none" xmlns="http://www.w3.org/2000/svg">
<path d="M9.0018 20.9958H15.0013" stroke="#AD2023" stroke-width="1.49989" stroke-linecap="round" stroke-linejoin="round"/>
<path d="M18.0012 9.74652V11.2464C18.0012 14.5462 15.3014 17.246 12.0017 17.246C8.70193 17.246 6.00214 14.5462 6.00214 11.2464V9.74652" stroke="#AD2023" stroke-width="1.49989" stroke-linecap="round" stroke-linejoin="round"/>
<path d="M11.9995 17.2462V20.9959" stroke="#AD2023" stroke-width="1.49989" stroke-linecap="round" stroke-linejoin="round"/>
<path d="M12.0016 2.99705C11.6071 2.99506 11.2161 3.07129 10.8513 3.22134C10.4865 3.37139 10.155 3.59228 9.87602 3.87123C9.59707 4.15018 9.37618 4.48166 9.22613 4.84651C9.07609 5.21136 8.99985 5.60233 9.00184 5.99682V11.1996C9.00184 12.8494 10.3611 14.2462 12.0016 14.2462C13.6421 14.2462 15.0014 12.8869 15.0014 11.1996V5.99682C15.0014 4.30945 13.689 2.99705 12.0016 2.99705Z" stroke="#AD2023" stroke-width="1.49989" stroke-linecap="round" stroke-linejoin="round"/>
</svg>
